<svg width="231" height="68" xmlns="http://www.w3.org/2000/svg"><path d="M9 50l-9-4.5v-27L9 14v4.5l-4.5 2.25v22.5L9 45.5V50zm4.5 0v-4.5l4.5-2.25v-22.5l-4.5-2.25V14l4.5 2.25V.5l4.5 2.25V45.5l-9 4.5zm25.75 0v-4.5l9-4.5v4.5l-9 4.5zm-4.5 0l-9-4.5v-27l9-4.5v4.5l-4.5 2.25v22.5l4.5 2.25V50zm4.5-13.5V32l4.5-2.25v-9l-4.5-2.25V14l9 4.5V32l-9 4.5zM56 50V23l-4.5 2.25v-4.5L56 18.5V7.25L69.5.5V5l-9 4.5v6.75L65 14v4.5l-4.5 2.25v27L56 50zm21.25 0l-4.5-2.25v-31.5l4.5-2.25v36zm-4.5-38.25v-4.5L77.25 5v4.5l-4.5 2.25zm10 38.25L85 45.5h4.5L87.25 50h-4.5zm23.5 0v-4.5l9-4.5v4.5l-9 4.5zm-4.5 0l-9-4.5v-27l9-4.5v4.5l-4.5 2.25v22.5l4.5 2.25V50zm4.5-13.5V32l4.5-2.25v-9l-4.5-2.25V14l9 4.5V32l-9 4.5zM123 50l-4.5-2.25V36.5l9-4.5v4.5l-4.5 2.25V50zm13.5 0V38.75L132 36.5V32l9 4.5v11.25L136.5 50zm-9-18l-9-4.5V16.25L123 14v11.25l4.5 2.25V32zm4.5 0v-4.5l4.5-2.25V14l4.5 2.25V27.5l-9 4.5zm16.75 36l-4.5-2.25V18.5l9-4.5v4.5l-4.5 2.25v22.5l4.5 2.25V50l-4.5-2.25V68zm9-18v-4.5l4.5-2.25v-22.5l-4.5-2.25V14l9 4.5v27l-9 4.5zm25.75 0v-4.5l9-4.5v4.5l-9 4.5zm-4.5 0l-9-4.5v-27l9-4.5v4.5l-4.5 2.25v22.5l4.5 2.25V50zm4.5-13.5V32l4.5-2.25v-9l-4.5-2.25V14l9 4.5V32l-9 4.5zM200.25 50l-4.5-2.25v-31.5l4.5-2.25v2.25l4.5-2.25v4.5l-4.5 2.25V50zm13.5-29.25l-4.5-2.25V14l4.5 2.25v4.5zM230.5 50l-9-4.5v-27l-4.5 2.25v-4.5l4.5-2.25V2.75L226 .5v11.25l4.5-2.25V14l-4.5 2.25v27l4.5 2.25V50z" fill="#000" fill-rule="nonzero"/></svg>